<?xml version="1.0" encoding="utf-8"?>

<!-- License Agreement at http://iconmonstr.com/license/ -->

<!DOCTYPE svg PUBLIC "-//W3C//DTD SVG 1.1//EN" "http://www.w3.org/Graphics/SVG/1.1/DTD/svg11.dtd">
<svg version="1.1" xmlns="http://www.w3.org/2000/svg" xmlns:xlink="http://www.w3.org/1999/xlink" x="0px" y="0px"
	 width="512px" height="512px" viewBox="0 0 512 512" enable-background="new 0 0 512 512" xml:space="preserve">
<path id="lifebuoy-5-icon" d="M256,50C142.015,50,50,142.474,50,256c0,113.675,92.167,206,206,206c113.771,0,206-92.229,206-206
	C462,142.554,370.081,50,256,50z M418.445,175.988l-43.562,24.814c-12.966-27.856-35.693-50.588-63.436-63.571l24.812-43.557
	C371.665,111.222,400.869,140.384,418.445,175.988z M330.953,330.953c-41.51,41.51-108.568,41.34-149.906,0
	c-41.387-41.387-41.449-108.457,0-149.906c41.508-41.509,108.57-41.339,149.906-0.001
	C372.344,222.435,372.4,289.511,330.953,330.953z M175.742,93.675l24.811,43.558c-27.721,12.974-50.457,35.687-63.436,63.57
	l-43.562-24.814C111.117,140.409,140.311,111.233,175.742,93.675z M94.672,338.241l43.523-24.791
	c13.24,27.067,35.873,49.28,63.652,61.912l-24.828,43.587C141.597,401.743,112.474,373.068,94.672,338.241z M334.981,418.949
	l-24.829-43.588c27.769-12.625,50.409-34.835,63.653-61.911l43.521,24.791C399.517,373.089,370.381,401.754,334.981,418.949z
	 M315.598,272.602h-42.995v42.995h-33.204v-42.995h-42.997v-33.204h42.997v-42.995h33.204v42.995h42.995V272.602z"/>
</svg>
