<?xml version="1.0" encoding="utf-8"?>

<!-- License Agreement at http://iconmonstr.com/license/ -->

<!DOCTYPE svg PUBLIC "-//W3C//DTD SVG 1.1//EN" "http://www.w3.org/Graphics/SVG/1.1/DTD/svg11.dtd">
<svg version="1.1" xmlns="http://www.w3.org/2000/svg" xmlns:xlink="http://www.w3.org/1999/xlink" x="0px" y="0px"
	 width="512px" height="512px" viewBox="0 0 512 512" enable-background="new 0 0 512 512" xml:space="preserve">
<path id="light-bulb-3-icon" d="M155.605,106.398c-1.913-8.509,3.435-16.958,11.943-18.871
	c74.054-16.653,76.846-14.492,84.018-28.807c3.906-7.798,13.395-10.95,21.193-7.045c16.016,8.019,6.957,42.498-25.818,50.368
	c-10.738,2.579-72.464,16.297-72.464,16.297C165.969,120.254,157.519,114.906,155.605,106.398z M174.478,172.607l169.975-38.219
	c8.51-1.912,13.855-10.361,11.942-18.869c-1.913-8.509-10.361-13.855-18.871-11.943l-169.975,38.218
	c-8.509,1.913-13.856,10.363-11.943,18.872C157.519,169.174,165.969,174.521,174.478,172.607z M356.395,169.859
	c-1.913-8.509-10.361-13.856-18.871-11.943l-169.975,38.219c-8.509,1.913-13.856,10.362-11.943,18.87
	c4.062,18.051,55.403,31.728,55.403,66.791v12.812h-40.48c0,0,0,20.347,0,41.025c0,33.688,32.606,46.658,41.441,84.722
	c0,0,76.217,0,87.558,0c8.672-37.358,41.776-51.033,41.776-84.722v-41.025h-41.648v-20.719c0-12.612,8.724-23.547,21.021-26.347
	l21.944-4.986c8.509-1.911,13.855-10.361,11.942-18.869c-1.914-8.509-10.361-13.855-18.871-11.943l-25.237,5.899
	c-24.448,5.713-41.741,27.513-41.741,52.619v24.346h-26.762v-16.105c0-27.936-17.277-39.324-37.639-58.263l140.14-31.51
	C352.962,186.817,358.308,178.367,356.395,169.859z M247.198,462h16.646c8.448,0,10.529-3.725,33.311-24.033h-82.479
	C236.327,457.98,238.557,462,247.198,462z"/>
</svg>
