<?xml version="1.0"?>
<svg width="512" height="512" xmlns="http://www.w3.org/2000/svg">
 <!-- Created with SVG-edit - http://svg-edit.googlecode.com/ -->
 <g>
  <title>Layer 1</title>
  <g id="svg_1">
   <path id="svg_2" d="m384.095001,254.837006l73.440979,23.263c0.743042,-6.986023 1.133057,-14.078979 1.133057,-21.263977c0,-69.531006 -35.697021,-130.715027 -89.756042,-166.255035l-28.485962,67.73703c26.376953,23.902954 43.102966,58.251953 43.667969,96.518982z" fill="#BC1230"/>
   <path id="svg_3" d="m118.306,258.402985l-56.631008,-17.937988c-0.439003,5.398987 -0.674992,10.856995 -0.674992,16.369995c0,65.325989 31.504967,123.291016 80.14798,159.536987l24.364014,-57.937012c-28.505981,-24.067993 -46.742004,-59.911987 -47.205994,-100.031982z" fill="#BC1230"/>
   <path id="svg_4" d="m251.20401,123.920013c4.278015,0 8.505981,0.209984 12.680969,0.605003l26.962036,-64.112991c-10.10498,-1.583012 -20.462036,-2.412022 -31.013,-2.412022c-74.812988,0 -139.96698,41.327999 -173.903992,102.394009l57.757996,18.294998c24.164978,-33.192032 63.317993,-54.768997 107.515991,-54.768997z" fill="#BC1230"/>
   <path id="svg_5" d="m251.20401,389.753998c-2.687012,0 -5.353027,-0.088989 -8,-0.245972l-25.900024,61.587952c13.704041,2.987 27.932007,4.575012 42.531006,4.575012c73.062012,0 136.905029,-39.411011 171.465027,-98.127014l-72.324036,-22.908997c-24.145996,33.389038 -63.419983,55.119019 -107.771973,55.119019z" fill="#BC1230"/>
   <path id="svg_6" d="m316.628601,311.848267c-32.164001,37.79184 -86.557663,44.282898 -121.546326,14.504639c-34.988571,-29.778198 -37.276459,-84.509979 -5.112442,-122.301834c32.164032,-37.791855 86.557693,-44.282913 121.546249,-14.50473c34.988647,29.778275 37.27655,84.510056 5.112518,122.301926z" stroke-linecap="null" stroke-linejoin="null" stroke-dasharray="null" stroke-width="null" fill="#BC1230"/>
  </g>
 </g>
</svg>