<?xml version="1.0"?>
<svg width="512" height="512" viewBox="0 0 512 512" xmlns="http://www.w3.org/2000/svg">
 <!-- Created with SVG-edit - http://svg-edit.googlecode.com/ -->
 <g>
  <title>Layer 1</title>
  <g id="svg_2">
   <path fill="#BC1230" d="m384.095001,254.837006l73.440979,23.263c0.743042,-6.986023 1.133057,-14.078979 1.133057,-21.263977c0,-69.531006 -35.697021,-130.715027 -89.756042,-166.255043l-28.485962,67.737038c26.376953,23.902954 43.102966,58.251953 43.667969,96.518982z" id="svg_2"/>
   <path fill="#BC1230" d="m118.306,258.402985l-56.631008,-17.937988c-0.439003,5.398987 -0.674992,10.856995 -0.674992,16.369995c0,65.325989 31.504967,123.291016 80.14798,159.536987l24.364014,-57.937012c-28.505981,-24.067993 -46.742004,-59.911987 -47.205994,-100.031982z" id="svg_3"/>
   <path fill="#BC1230" d="m251.20401,123.920013c4.278015,0 8.505981,0.209984 12.680969,0.605003l26.962036,-64.112995c-10.10498,-1.583012 -20.462036,-2.412022 -31.013,-2.412022c-74.812988,0 -139.96698,41.328003 -173.903992,102.394012l57.757996,18.294998c24.164978,-33.192032 63.317993,-54.768997 107.515991,-54.768997z" id="svg_4"/>
   <path fill="#BC1230" d="m251.20401,389.753998c-2.687012,0 -5.353027,-0.088989 -8,-0.245972l-25.900024,61.587952c13.704041,2.987 27.932007,4.575012 42.531006,4.575012c73.062012,0 136.905029,-39.411011 171.465027,-98.127014l-72.324036,-22.908997c-24.145996,33.389038 -63.419983,55.119019 -107.771973,55.119019z" id="svg_5"/>
   <ellipse transform="matrix(-0.7615 -0.6481 0.6481 -0.7615 794.802 1559.51)" fill="#BC1230" cx="1257.605541" cy="646.757863" rx="83.164" ry="89.827" id="svg_6"/>
  </g>
 </g>
</svg>